<svg xmlns="http://www.w3.org/2000/svg" viewBox="0 0 245 245"><defs><style>.cls-1{fill:#1e8896;}.cls-2{opacity:0.4;}</style></defs><title>Middel 1</title><g id="Laag_2" data-name="Laag 2"><g id="Laag_1-2" data-name="Laag 1"><circle class="cls-1" cx="122.5" cy="122.5" r="122.5"/><path class="cls-2" d="M197.15,139.23a97.73,97.73,0,0,0-25.74-18.92c-3.21-1.62-6.5-3.06-9.75-4.59-11.62-5.49-23.73-10.8-33.74-18.87a25,25,0,0,0-6.51-3.78c-1.78-.69-3.64-1.17-5.4-1.91C113.27,90,105,83,104.63,82.62a3.57,3.57,0,0,0-2.89-.69,13.36,13.36,0,0,0-4.91,1.42,7.23,7.23,0,0,0-3,2.56,3.79,3.79,0,0,0-.17,3.79c1.31,2.2,5.15,2.4,5.61,4.91.3,1.58-1.08,3-2.53,3.69-2.44,1.16-5.48.85-8.18.77-4.45-.13-12-5.75-12-9.4,0-2.44.2-4.51-.53-6.82a6.83,6.83,0,0,0-4-3.92c-4.87-2.09-11.32-.23-13.71,4.5a12.35,12.35,0,0,0-.56,8.76,29.88,29.88,0,0,0,3.93,8,38.82,38.82,0,0,0-5.85,6,40.13,40.13,0,0,0-4.56,6.23c-3,5.47-3.17,12-2.46,18.2.45,3.85,1.39,8,4.33,10.46,2.67,2.26,6.39,2.71,9.88,2.81,11.57.35,23.35-2,34.62.69,9.73,2.29,18.75,5.89,28,9.79,17.19,7.27,36.45,8.77,55,6.56a41.94,41.94,0,0,0,11.08-2.51,17.39,17.39,0,0,0,8.63-7.12,8.67,8.67,0,0,0,1.23-3.91C201.63,144.25,199.38,141.51,197.15,139.23ZM68.84,87a21.8,21.8,0,0,1-4.28,6.56c-.63.65-2.11,2.38-2.11,2.38s-2.17-3.32-2-5.11a5.06,5.06,0,0,1,.76-2c1.35-2.36,3.25-4.61,5.86-5.34a2.18,2.18,0,0,1,1.1-.09A1.74,1.74,0,0,1,69.32,85,4.36,4.36,0,0,1,68.84,87Z"/></g></g></svg>